<?xml version="1.0" encoding="utf-8"?>
<!-- Generator: Adobe Illustrator 21.1.0, SVG Export Plug-In . SVG Version: 6.00 Build 0)  -->
<svg version="1.1" id="Слой_1" xmlns="http://www.w3.org/2000/svg" xmlns:xlink="http://www.w3.org/1999/xlink" x="0px" y="0px"
	 viewBox="0 0 20 20" style="enable-background:new 0 0 20 20;" xml:space="preserve">
<style type="text/css">
	.st0{fill:#EF9A49;}
</style>
<g>
	<path class="st0" d="M10.048473,0.002533c-0.605907,0-1.090631,0.484726-1.090631,1.09063v11.439529L4.571074,8.145927
		c-0.436254-0.436256-1.114869-0.436256-1.551123,0c-0.436255,0.436249-0.436255,1.114868,0,1.551117l7.028522,7.028526
		l6.907341-7.028526c0.412016-0.436249,0.412016-1.114868-0.024237-1.551117C16.495325,7.73391,15.81671,7.73391,15.380455,8.170158
		l-4.265585,4.362534V1.093163C11.139106,0.487259,10.654381,0.002533,10.048473,0.002533z"/>
	<path class="st0" d="M0.28125,18.906837c0,0.605904,0.484726,1.09063,1.090633,1.09063h17.256233
		c0.605907,0,1.090633-0.484726,1.090633-1.09063c0-0.605911-0.484726-1.090637-1.090633-1.090637H1.371883
		C0.765976,17.8162,0.28125,18.300926,0.28125,18.906837z"/>
</g>
</svg>
