<?xml version="1.0" encoding="utf-8"?>
<!-- Generator: Adobe Illustrator 23.0.0, SVG Export Plug-In . SVG Version: 6.00 Build 0)  -->
<svg version="1.1" id="Слой_1" xmlns="http://www.w3.org/2000/svg" xmlns:xlink="http://www.w3.org/1999/xlink" x="0px" y="0px"
	 viewBox="0 0 16 18" style="enable-background:new 0 0 16 18;" xml:space="preserve">
<style type="text/css">
	.st0{fill:#888888;}
</style>
<path class="st0" d="M8.938242,9.230156c1.976789,1.012299,4.493558,0.552567,5.852042-0.805489
	c1.72729-1.728569,1.546729-4.719795-0.402743-6.669266s-4.941548-2.129814-6.668626-0.40274
	C6.360218,2.711998,5.900277,5.227913,6.91343,7.205345L0,14.11792l0.211082,0.211296l1.813729,1.813728L3.882081,18
	l1.518769-1.518768l-1.856416-1.857056l1.012512-1.012299l1.856416,1.857056l1.518556-1.518768l-1.856201-1.857269
	L8.938242,9.230156z M9.329885,2.965126c0.840488-0.840485,2.383162-0.661636,3.446043,0.401253
	c1.063523,1.064156,1.243231,2.606621,0.402743,3.447105c-0.840487,0.839211-2.74087,1.018066-3.803538-0.044609
	C8.311824,5.705994,8.489398,3.804123,9.329885,2.965126z"/>
</svg>
